<?xml version="1.0" standalone="no"?>
<!DOCTYPE svg PUBLIC "-//W3C//DTD SVG 20010904//EN"
 "http://www.w3.org/TR/2001/REC-SVG-20010904/DTD/svg10.dtd">
<svg version="1.0" xmlns="http://www.w3.org/2000/svg"
 width="48.000000pt" height="48.000000pt" viewBox="0 0 48.000000 48.000000"
 preserveAspectRatio="xMidYMid meet">

<g transform="translate(0.000000,48.000000) scale(0.100000,-0.100000)"
fill="#000000" stroke="none">
<path d="M147 415 c-49 -18 -91 -35 -93 -38 -9 -8 18 -240 28 -254 6 -7 44
-31 85 -53 l75 -40 77 41 c42 22 79 44 83 47 3 4 12 54 18 112 6 58 13 115 15
127 4 19 -5 25 -78 51 -119 43 -114 43 -210 7z m156 -144 c31 -71 57 -134 57
-140 0 -6 -9 -11 -20 -11 -13 0 -26 12 -37 35 -16 33 -20 35 -63 35 -43 0 -47
-2 -63 -35 -11 -23 -24 -35 -37 -35 -11 0 -20 4 -20 9 0 15 114 271 121 271 3
0 31 -58 62 -129z"/>
<path d="M221 260 c-10 -29 -9 -30 20 -30 33 0 33 0 17 35 -15 33 -24 32 -37
-5z"/>
</g>
</svg>
